<svg width="1200" height="420" viewBox="0 0 1200 420" fill="none" xmlns="http://www.w3.org/2000/svg">
  <rect width="1200" height="420" rx="24" fill="#261025"/>
  <rect x="24" y="24" width="1152" height="372" rx="20" fill="#3D1738" stroke="#F97316"/>
  <text x="60" y="84" fill="#FFF7ED" font-family="Arial, sans-serif" font-size="34" font-weight="700">Instagram Downloader</text>
  <text x="60" y="118" fill="#FED7AA" font-family="Arial, sans-serif" font-size="18">Save Reels, Stories, posts, carousel images, and captions</text>
  <rect x="60" y="160" width="300" height="180" rx="18" fill="#4D1B45"/>
  <rect x="450" y="160" width="300" height="180" rx="18" fill="#4D1B45"/>
  <rect x="840" y="160" width="300" height="180" rx="18" fill="#4D1B45"/>
  <circle cx="112" cy="208" r="24" fill="#FB7185"/>
  <text x="104" y="216" fill="#4C0519" font-family="Arial, sans-serif" font-size="18" font-weight="700">1</text>
  <circle cx="502" cy="208" r="24" fill="#F59E0B"/>
  <text x="494" y="216" fill="#451A03" font-family="Arial, sans-serif" font-size="18" font-weight="700">2</text>
  <circle cx="892" cy="208" r="24" fill="#22C55E"/>
  <text x="884" y="216" fill="#052E16" font-family="Arial, sans-serif" font-size="18" font-weight="700">3</text>
  <text x="150" y="214" fill="#FFF7ED" font-family="Arial, sans-serif" font-size="26" font-weight="700">Open the post</text>
  <text x="150" y="248" fill="#FFEDD5" font-family="Arial, sans-serif" font-size="18">Load the Reel, Story, or</text>
  <text x="150" y="274" fill="#FFEDD5" font-family="Arial, sans-serif" font-size="18">carousel you want to save.</text>
  <text x="540" y="214" fill="#FFF7ED" font-family="Arial, sans-serif" font-size="26" font-weight="700">Review media</text>
  <text x="540" y="248" fill="#FFEDD5" font-family="Arial, sans-serif" font-size="18">Choose videos, images,</text>
  <text x="540" y="274" fill="#FFEDD5" font-family="Arial, sans-serif" font-size="18">or caption exports.</text>
  <text x="930" y="214" fill="#FFF7ED" font-family="Arial, sans-serif" font-size="26" font-weight="700">Save locally</text>
  <text x="930" y="248" fill="#FFEDD5" font-family="Arial, sans-serif" font-size="18">Keep files for offline</text>
  <text x="930" y="274" fill="#FFEDD5" font-family="Arial, sans-serif" font-size="18">viewing and archiving.</text>
  <path d="M372 250H438" stroke="#F97316" stroke-width="6" stroke-linecap="round"/>
  <path d="M762 250H828" stroke="#F97316" stroke-width="6" stroke-linecap="round"/>
</svg>
